# xmcd CD database file
#
# Track frame offsets:
#	150
#	14023
#	25331
#	43086
#	58055
#	79923
#	100917
#	129510
#	140839
#	156964
#	168356
#	181342
#	194305
#	207275
#	218857
#	232168
#	246564
#	262686
#	278562
#
# Disc length: 3937 seconds
#
# Revision: 0
# Processed by: cddbd v1.5.2PL0 Copyright (c) Steve Scherf et al.
# Submitted via: CDex 1.51
#
DISCID=1c0f5f13
DTITLE=Frank Sinatra - The Sound Track Volume 4 Friends Of Frank and Epilogue
DYEAR=1900
DGENRE=Jazz
TTITLE0=Dean Martin--In The Cool Of The Evening
TTITLE1=Laura
TTITLE2=Nat King Cole--The Very Thought Of You
TTITLE3=Nat King Cole--Stardust
TTITLE4=A Nightingale Sang In Berkeley Square
TTITLE5=Tony Bennett--Lost In The Stars
TTITLE6=Tony Bennett--Lost In The Stars
TTITLE7=You'll Never Know
TTITLE8=Where Or When
TTITLE9=Little White Lies
TTITLE10=I'll Be Seeing You [slower]
TTITLE11=I'll Be Seeing You [jazzier]
TTITLE12=Fly Me To The Moon
TTITLE13=The Shadow Of Your Smile
TTITLE14=My Kind Of Town
TTITLE15=Moon Song
TTITLE16=Moonlight Serenade
TTITLE17=I've Got A Crust On You
TTITLE18=I'm Getting Sentimental Over You
EXTD=
EXTT0=
EXTT1=
EXTT2=
EXTT3=
EXTT4=
EXTT5=
EXTT6=
EXTT7=
EXTT8=
EXTT9=
EXTT10=
EXTT11=
EXTT12=
EXTT13=
EXTT14=
EXTT15=
EXTT16=
EXTT17=
EXTT18=
PLAYORDER=
